<svg width="100" height="101" viewBox="0 0 100 101" fill="none" xmlns="http://www.w3.org/2000/svg">
<circle cx="50" cy="50.9856" r="50" fill="#D9FADD"/>
<path d="M54.7992 41.3432C54.7992 43.227 54.4411 44.9627 53.8392 46.3526C54.1897 46.5986 54.5154 46.877 54.8123 47.1841L63.3364 38.6539C59.9712 35.2463 55.3118 33.1224 50.156 33.0803C52.7243 33.1225 54.7992 36.8049 54.7992 41.3432Z" fill="#D9FADD"/>
<path d="M39.1882 55.8694C40.5192 54.5374 41.9987 53.5636 43.4064 53.0065C43.3401 52.628 43.3035 52.2392 43.3035 51.8416C43.3035 51.8042 43.3058 51.7673 43.3063 51.7299H31.2514C31.2512 51.7674 31.25 51.8044 31.25 51.8417C31.25 56.9682 33.3053 61.6137 36.6353 65.0003C34.8455 63.1543 35.98 59.08 39.1882 55.8694Z" fill="#D9FADD"/>
<path d="M45.2009 62.3402C45.2009 60.4565 45.559 58.7208 46.1609 57.3308C45.8104 57.0848 45.4847 56.8064 45.1878 56.4994L36.6637 65.0295C40.0288 68.4371 44.6883 70.561 49.8441 70.6031C47.2758 70.561 45.2009 66.8786 45.2009 62.3402Z" fill="#D9FADD"/>
<path d="M45.9752 41.0223C47.3063 42.3543 48.2793 43.8348 48.8361 45.2435C49.2143 45.1772 49.6029 45.1405 50.0001 45.1405C50.0376 45.1405 50.0745 45.1428 50.1118 45.1433V33.0798C50.0744 33.0796 50.0374 33.0784 50 33.0784C44.8772 33.0784 40.235 35.1352 36.8508 38.4675C38.6956 36.6765 42.7669 37.8118 45.9752 41.0223Z" fill="#D9FADD"/>
<path d="M39.5089 47.0392C41.3913 47.0392 43.1257 47.3976 44.5147 47.9999C44.7605 47.6491 45.0388 47.3231 45.3456 47.0261L36.8215 38.4959C33.4163 41.8635 31.2939 46.5263 31.2518 51.6857C31.294 49.1156 34.9738 47.0392 39.5089 47.0392Z" fill="#D9FADD"/>
<path d="M60.4911 56.6443C58.6087 56.6443 56.8742 56.2859 55.4853 55.6837C55.2395 56.0344 54.9612 56.3603 54.6544 56.6574L63.1785 65.1876C66.5837 61.82 68.7061 57.1573 68.7482 51.9978C68.706 54.5679 65.0262 56.6443 60.4911 56.6443Z" fill="#D9FADD"/>
<path d="M60.8118 47.8141C59.4807 49.1461 58.0012 50.1198 56.5935 50.677C56.6598 51.0554 56.6964 51.4443 56.6964 51.8418C56.6964 51.8793 56.6942 51.9162 56.6936 51.9535H68.7486C68.7488 51.9162 68.75 51.8792 68.75 51.8418C68.75 46.7154 66.6947 42.07 63.3648 38.6834C65.1544 40.5293 64.02 44.6036 60.8118 47.8141Z" fill="#D9FADD"/>
<path d="M54.0248 62.6613C52.6938 61.3293 51.7206 59.8487 51.164 58.44C50.7858 58.5064 50.3972 58.543 49.9999 58.543C49.9625 58.543 49.9256 58.5408 49.8883 58.5402V70.6037C49.9256 70.6039 49.9626 70.6051 49.9999 70.6051C55.1228 70.6051 59.765 68.5484 63.1491 65.216C61.3045 67.007 57.2331 65.8717 54.0248 62.6613Z" fill="#D9FADD"/>
<path d="M60.4911 56.6443C65.0524 56.6443 68.75 54.5442 68.75 51.9535H56.6935C56.6708 53.3403 56.2275 54.6241 55.4851 55.6836C56.8742 56.2859 58.6085 56.6443 60.4911 56.6443Z" fill="#C3FF17"/>
<path d="M60.8119 47.8141C64.0372 44.5865 65.1678 40.485 63.3373 38.6531L54.8123 47.1843C55.722 48.1253 56.3579 49.3319 56.5936 50.677C58.0012 50.1198 59.4808 49.1461 60.8119 47.8141Z" fill="#C3FF17"/>
<path d="M54.7991 41.3432C54.7991 36.7786 52.7004 33.0784 50.1116 33.0784V45.1434C51.4974 45.1662 52.7803 45.6098 53.8391 46.3527C54.441 44.9627 54.7991 43.227 54.7991 41.3432Z" fill="#C3FF17"/>
<path d="M45.9752 41.0222C42.7499 37.7947 38.6512 36.6632 36.8207 38.4951L45.3457 47.0261C46.286 46.1158 47.4918 45.4794 48.8359 45.2435C48.2793 43.8348 47.3062 42.3542 45.9752 41.0222Z" fill="#C3FF17"/>
<path d="M39.5089 47.0392C34.9476 47.0392 31.25 49.1393 31.25 51.73H43.3064C43.3292 50.3432 43.7725 49.0594 44.5148 47.9999C43.1258 47.3976 41.3914 47.0392 39.5089 47.0392Z" fill="#C3FF17"/>
<path d="M39.1882 55.8694C35.9629 59.097 34.8323 63.1986 36.6628 65.0304L45.1879 56.4994C44.2782 55.5583 43.6423 54.3517 43.4066 53.0067C41.9989 53.5637 40.5193 54.5374 39.1882 55.8694Z" fill="#C3FF17"/>
<path d="M45.2009 62.3402C45.2009 66.9048 47.2996 70.6051 49.8884 70.6051V58.5401C48.5026 58.5173 47.2197 58.0737 46.1609 57.3307C45.5591 58.7209 45.2009 60.4565 45.2009 62.3402Z" fill="#C3FF17"/>
<path d="M54.0248 62.6613C57.2501 65.8888 61.3487 67.0203 63.1793 65.1884L54.6543 56.6573C53.7139 57.5677 52.5082 58.204 51.1641 58.4399C51.7207 59.8486 52.6937 61.3293 54.0248 62.6613Z" fill="#C3FF17"/>
<path d="M50.0001 45.1404C46.3018 45.1404 43.3037 48.1406 43.3037 51.8417C43.3037 55.5427 46.3018 58.5428 50.0001 58.5428C53.6984 58.5428 56.6965 55.5427 56.6965 51.8417C56.6965 48.1407 53.6984 45.1404 50.0001 45.1404Z" fill="#D9FADD"/>
<path d="M50.0002 54.0754C51.233 54.0754 52.2323 53.0753 52.2323 51.8417C52.2323 50.608 51.233 49.608 50.0002 49.608C48.7674 49.608 47.7681 50.608 47.7681 51.8417C47.7681 53.0753 48.7674 54.0754 50.0002 54.0754Z" fill="#C3FF17"/>
<path d="M70.1172 26.824H29.8828C27.1904 26.824 25 29.016 25 31.7103V71.9732C25 74.6675 27.1904 76.8595 29.8828 76.8595H70.1172C72.8096 76.8595 75 74.6675 75 71.9732V31.7103C75 29.016 72.8096 26.824 70.1172 26.824ZM73.0469 71.9732C73.0469 73.5898 71.7326 74.905 70.1172 74.905H29.8828C28.2674 74.905 26.9531 73.5898 26.9531 71.9732V31.7103C26.9531 30.0937 28.2674 28.7785 29.8828 28.7785H70.1172C71.7326 28.7785 73.0469 30.0937 73.0469 31.7103V71.9732Z" fill="#5CCD6A"/>
<path d="M70.0195 66.9892C69.4803 66.9892 69.043 67.4268 69.043 67.9665C69.043 69.583 67.7287 70.8982 66.1133 70.8982C65.574 70.8982 65.1367 71.3358 65.1367 71.8755C65.1367 72.4151 65.574 72.8527 66.1133 72.8527C68.8057 72.8527 70.9961 70.6607 70.9961 67.9665C70.9961 67.4268 70.5588 66.9892 70.0195 66.9892Z" fill="#5CCD6A"/>
<path d="M66.1133 30.8307C65.574 30.8307 65.1367 31.2683 65.1367 31.808C65.1367 32.3476 65.574 32.7852 66.1133 32.7852C67.7287 32.7852 69.043 34.1004 69.043 35.717C69.043 36.2566 69.4803 36.6943 70.0195 36.6943C70.5588 36.6943 70.9961 36.2566 70.9961 35.717C70.9961 33.0227 68.8057 30.8307 66.1133 30.8307Z" fill="#5CCD6A"/>
<path d="M29.9805 36.6943C30.5198 36.6943 30.957 36.2566 30.957 35.717C30.957 34.1004 32.2713 32.7852 33.8867 32.7852C34.4261 32.7852 34.8633 32.3476 34.8633 31.808C34.8633 31.2683 34.4261 30.8307 33.8867 30.8307C31.1943 30.8307 29.0039 33.0227 29.0039 35.717C29.0039 36.2566 29.4411 36.6943 29.9805 36.6943Z" fill="#5CCD6A"/>
<path d="M33.8867 70.8982C32.2713 70.8982 30.957 69.583 30.957 67.9665C30.957 67.4268 30.5198 66.9892 29.9805 66.9892C29.4411 66.9892 29.0039 67.4268 29.0039 67.9665C29.0039 70.6607 31.1943 72.8527 33.8867 72.8527C34.4261 72.8527 34.8633 72.4151 34.8633 71.8755C34.8633 71.3358 34.4261 70.8982 33.8867 70.8982Z" fill="#5CCD6A"/>
<path d="M66.1133 69.0414C66.7066 69.0414 67.1875 68.5602 67.1875 67.9665C67.1875 67.3728 66.7066 66.8915 66.1133 66.8915C65.52 66.8915 65.0391 67.3728 65.0391 67.9665C65.0391 68.5602 65.52 69.0414 66.1133 69.0414Z" fill="#5CCD6A"/>
<path d="M33.9844 69.0414C34.5776 69.0414 35.0586 68.5602 35.0586 67.9665C35.0586 67.3728 34.5776 66.8915 33.9844 66.8915C33.3911 66.8915 32.9102 67.3728 32.9102 67.9665C32.9102 68.5602 33.3911 69.0414 33.9844 69.0414Z" fill="#5CCD6A"/>
<path d="M66.1133 36.792C66.7066 36.792 67.1875 36.3107 67.1875 35.717C67.1875 35.1233 66.7066 34.642 66.1133 34.642C65.52 34.642 65.0391 35.1233 65.0391 35.717C65.0391 36.3107 65.52 36.792 66.1133 36.792Z" fill="#5CCD6A"/>
<path d="M33.9844 36.792C34.5776 36.792 35.0586 36.3107 35.0586 35.717C35.0586 35.1233 34.5776 34.642 33.9844 34.642C33.3911 34.642 32.9102 35.1233 32.9102 35.717C32.9102 36.3107 33.3911 36.792 33.9844 36.792Z" fill="#5CCD6A"/>
<path d="M63.9542 65.7817C67.4605 62.2669 69.6521 57.4395 69.7232 52.1091C69.7254 52.0574 69.7267 52.0055 69.7267 51.9534C69.7267 51.9458 69.7257 51.9386 69.7255 51.9311C69.7256 51.9012 69.7266 51.8716 69.7266 51.8417C69.7266 46.5531 67.6372 41.7439 64.2415 38.1963C64.1737 38.1158 64.1029 38.0373 64.0276 37.9621C63.9968 37.9312 63.9639 37.9037 63.9301 37.8778C60.4178 34.3689 55.5937 32.1757 50.267 32.1046C50.2153 32.1024 50.1635 32.1012 50.1114 32.1012C50.1038 32.1012 50.0966 32.1021 50.0891 32.1023C50.0594 32.1021 50.0298 32.1012 50 32.1012C44.7166 32.1012 39.912 34.1908 36.3673 37.5871C36.2856 37.6559 36.2063 37.7278 36.1302 37.804C36.0998 37.8345 36.0725 37.8673 36.0466 37.9011C32.5398 41.416 30.348 46.2436 30.277 51.5744C30.2748 51.6261 30.2735 51.678 30.2735 51.73C30.2735 51.7377 30.2745 51.7449 30.2747 51.7524C30.2744 51.7823 30.2734 51.8119 30.2734 51.8417C30.2734 57.1303 32.3627 61.9394 35.7583 65.487C35.8261 65.5676 35.897 65.6461 35.9723 65.7214C36.0032 65.7524 36.0361 65.7799 36.0699 65.8059C39.5822 69.3146 44.4062 71.5078 49.7328 71.5789C49.7845 71.5811 49.8363 71.5823 49.8884 71.5823C49.896 71.5823 49.9033 71.5814 49.9108 71.5812C49.9406 71.5814 49.9702 71.5823 50 71.5823C55.2882 71.5823 60.0967 69.4888 63.6424 66.0869C63.7204 66.0209 63.7969 65.9525 63.8699 65.8794C63.9008 65.8485 63.9282 65.8155 63.9542 65.7817ZM36.8414 39.8979L43.5534 46.6147C42.3381 46.2597 40.9681 46.062 39.5089 46.062C36.7715 46.062 34.3479 46.7578 32.6709 47.883C33.3609 44.8566 34.8241 42.1215 36.8414 39.8979ZM44.2802 51.8417C44.2802 48.6856 46.8461 46.1179 50 46.1179C53.1539 46.1179 55.7198 48.6856 55.7198 51.8417C55.7198 54.9979 53.1539 57.5656 50 57.5656C46.8461 57.5656 44.2802 54.9979 44.2802 51.8417ZM48.9118 59.4416V69.3434C48.373 69.0307 47.858 68.4688 47.4231 67.7019C46.6198 66.2857 46.1774 64.3814 46.1774 62.3403C46.1774 61.0652 46.3509 59.8444 46.6763 58.7618C47.37 59.0968 48.122 59.3288 48.9118 59.4416ZM42.7607 54.3828C43.023 55.1288 43.396 55.8231 43.8621 56.444L36.8638 63.4473C36.7038 62.845 36.7366 62.0832 36.971 61.2333C37.4038 59.6634 38.4364 58.0038 39.8787 56.5605C40.78 55.6586 41.7654 54.9176 42.7607 54.3828ZM42.4056 50.7528H32.5107C32.8232 50.2136 33.3848 49.6982 34.151 49.2631C35.5663 48.4592 37.4691 48.0165 39.5089 48.0165C40.7832 48.0165 42.003 48.1902 43.0846 48.5161C42.75 49.2103 42.5182 49.9626 42.4056 50.7528ZM38.4026 38.6962C39.0047 38.5361 39.7657 38.5688 40.6152 38.8035C42.184 39.2365 43.8423 40.27 45.2846 41.7133C46.1858 42.6152 46.9258 43.6014 47.4604 44.5973C46.715 44.8598 46.0214 45.233 45.401 45.6994L38.4026 38.6962ZM51.0882 44.2419V34.3401C51.627 34.6528 52.142 35.2147 52.5769 35.9816C53.3802 37.3978 53.8226 39.302 53.8226 41.3432C53.8226 42.6184 53.6488 43.839 53.3232 44.9214C52.6296 44.5866 51.8778 44.3546 51.0882 44.2419ZM54.599 57.9841L61.5974 64.9873C60.9953 65.1474 60.2341 65.1147 59.3848 64.88C57.816 64.447 56.1577 63.4135 54.7154 61.9702C53.8142 61.0683 53.0746 60.082 52.5399 59.086C53.2852 58.8235 53.9787 58.4503 54.599 57.9841ZM57.5944 52.9307H67.4893C67.1768 53.4699 66.6152 53.9853 65.8489 54.4204C64.4337 55.2243 62.5309 55.667 60.4911 55.667C59.2169 55.667 57.9971 55.4934 56.9152 55.1676C57.25 54.4735 57.4818 53.721 57.5944 52.9307ZM56.138 47.2395L63.1362 40.2362C63.2962 40.8385 63.2634 41.6004 63.029 42.4503C62.5963 44.0202 61.5636 45.6797 60.1213 47.123C59.22 48.0249 58.2345 48.7655 57.2392 49.3003C56.9769 48.5545 56.604 47.8603 56.138 47.2395ZM58.2513 50.9762C59.3617 50.3673 60.4704 49.5378 61.5024 48.5052C63.435 46.5713 64.6558 44.3684 65.0484 42.3885C66.6294 44.8998 67.6009 47.832 67.7522 50.9762H58.2513ZM55.2233 45.3906C55.5781 44.1744 55.7757 42.8034 55.7757 41.3433C55.7757 38.6039 55.0804 36.1786 53.956 34.5004C56.9803 35.191 59.7135 36.6553 61.9354 38.6739L55.2233 45.3906ZM49.1351 43.584C48.5266 42.473 47.6976 41.3638 46.6657 40.3312C44.9883 38.6526 43.0239 37.4409 41.1346 36.9193C40.9377 36.865 40.7446 36.8212 40.5535 36.7827C43.063 35.2006 45.9931 34.2286 49.1351 34.0771V43.584ZM41.7481 52.7073C40.6379 53.3162 39.5295 54.1458 38.4977 55.1783C36.5651 57.1123 35.3444 59.3151 34.9517 61.2949C33.3707 58.7837 32.3992 55.8514 32.2479 52.7073H41.7481ZM44.7766 58.293C44.4218 59.5092 44.2243 60.8802 44.2243 62.3403C44.2243 65.0797 44.9196 67.505 46.044 69.1832C43.0197 68.4926 40.2865 67.0283 38.0646 65.0097L44.7766 58.293ZM50.8649 60.0995C51.4734 61.2105 52.3024 62.3198 53.3342 63.3523C55.2665 65.286 57.4675 66.5081 59.4457 66.9013C56.9363 68.4831 54.0065 69.455 50.8649 69.6064V60.0995ZM56.4466 57.0688C57.6619 57.4238 59.0319 57.6215 60.491 57.6215C63.2284 57.6215 65.6521 56.9257 67.329 55.8005C66.639 58.827 65.1757 61.5621 63.1585 63.7857L56.4466 57.0688Z" fill="#5CCD6A"/>
<path d="M53.2089 51.8312C53.2031 50.0607 51.7589 48.625 49.9897 48.6307C48.2204 48.6365 46.7857 50.0817 46.7915 51.8522C46.7973 53.6227 48.2414 55.0585 50.0107 55.0528C51.78 55.0469 53.2148 53.6017 53.2089 51.8312ZM48.7446 51.8458C48.7424 51.1529 49.3038 50.5875 49.9961 50.5852C50.6885 50.583 51.2535 51.1448 51.2558 51.8376C51.258 52.5304 50.6966 53.0959 50.0043 53.0982C49.312 53.1004 48.7469 52.5387 48.7446 51.8458Z" fill="#5CCD6A"/>
</svg>
