<svg width="22" height="23" viewBox="0 0 22 23" fill="none" xmlns="http://www.w3.org/2000/svg">
<path d="M21.4919 18.0449C21.4908 18.0437 21.4895 18.0424 21.4882 18.0411C21.4598 18.0123 21.4082 17.9683 21.3235 17.9092C21.1544 17.7912 20.8977 17.6435 20.5422 17.4658L20.528 17.4587L20.5144 17.4508C20.3234 17.3397 20.0472 17.1865 19.6836 16.9888C19.3176 16.7899 18.9846 16.6063 18.6855 16.4381L21.4919 18.0449ZM21.4919 18.0449C21.4924 18.0477 21.4929 18.0511 21.4935 18.055C21.4971 18.08 21.5001 18.119 21.5 18.1752V18.1764C21.5 18.4039 21.457 18.7296 21.3564 19.1663L21.3563 19.1667C21.2553 19.6068 21.1547 19.9289 21.0581 20.1474L21.058 20.1474L21.0544 20.1561C20.9856 20.3202 20.8325 20.5293 20.5468 20.7778C20.2645 21.0234 19.8753 21.2878 19.3691 21.5688C18.4519 22.0664 17.5648 22.3047 16.7032 22.3047C16.4446 22.3047 16.1939 22.2876 15.951 22.2548C15.7135 22.2219 15.4372 22.1624 15.1197 22.073C14.7889 21.9797 14.5546 21.9077 14.4097 21.8562L14.4096 21.8562C14.2529 21.8005 13.9675 21.6951 13.5507 21.5387C13.1457 21.3864 12.8821 21.2892 12.7728 21.2527C11.7829 20.8983 10.9059 20.4811 10.1395 20.0032L10.1376 20.002C8.84498 19.2038 7.49739 18.1072 6.09556 16.7045C4.69379 15.3017 3.59788 13.953 2.80045 12.6596L2.79925 12.6577C2.32144 11.8905 1.90447 11.0131 1.55058 10.0223C1.51421 9.91403 1.41697 9.65014 1.26508 9.24436L1.26501 9.24419C1.1086 8.82682 1.00333 8.5416 0.947849 8.38498L21.4919 18.0449ZM21.8436 19.2786C21.7395 19.7321 21.6305 20.0892 21.5155 20.3495C21.2967 20.8711 20.6615 21.4236 19.6096 22.0072L21.8436 19.2786ZM21.8436 19.2786C21.9481 18.8252 22 18.4579 22 18.1764L21.8436 19.2786ZM17.8144 15.9329L17.7936 15.9172C17.762 15.8934 17.6427 15.8098 17.4191 15.655C17.2104 15.511 17.0496 15.415 16.931 15.3577L17.1485 14.9075M17.8144 15.9329L5.17628 10.5891C5.23067 10.6772 5.27209 10.7448 5.30092 10.7924C5.31542 10.8164 5.32599 10.8341 5.33315 10.8463C5.3353 10.8499 5.33686 10.8526 5.33792 10.8545L5.33883 10.8563L5.34414 10.8659C6.15552 12.3296 7.08902 13.5928 8.14646 14.6514L8.14662 14.6516C9.20443 15.7096 10.4669 16.6436 11.9295 17.4557L11.9384 17.4607L11.94 17.4615M17.8144 15.9329L17.8368 15.9463M17.8144 15.9329L17.8368 15.9463M17.1485 14.9075L16.9317 15.358C16.8391 15.3135 16.7651 15.2986 16.7057 15.2982C16.7025 15.2988 16.6693 15.3041 16.5996 15.3439C16.516 15.3916 16.4053 15.4744 16.2667 15.6062C15.9749 15.8839 15.7072 16.1854 15.464 16.5121L15.4639 16.5122C15.1905 16.879 14.8998 17.2191 14.5921 17.5329L14.5919 17.5331C14.4299 17.6981 14.2657 17.8393 14.0999 17.942C13.9381 18.0423 13.7387 18.1284 13.5163 18.1284C13.3381 18.1284 13.1575 18.0807 12.9917 18.0196L12.9907 18.0193C12.8431 17.9645 12.7186 17.9132 12.6237 17.8666L12.6183 17.864L12.6183 17.864C12.5244 17.8165 12.3836 17.7336 12.2065 17.6238M17.1485 14.9075C17.2998 14.9806 17.4845 15.0927 17.7035 15.2437M17.1485 14.9075C16.9975 14.8348 16.849 14.7982 16.7031 14.7982C16.4948 14.7982 16.2346 14.9468 15.9222 15.2437H17.7035M12.2065 17.6238C12.2063 17.6237 12.2061 17.6236 12.2059 17.6235L12.4693 17.1985L12.2068 17.6241C12.2067 17.624 12.2066 17.6239 12.2065 17.6238ZM12.2065 17.6238C12.1181 17.5694 12.0505 17.5279 12.0028 17.499C11.9788 17.4845 11.9611 17.4738 11.9488 17.4666C11.9448 17.4642 11.9419 17.4626 11.94 17.4615M11.94 17.4615L11.9475 17.4652C11.9416 17.4623 11.9377 17.4601 11.9372 17.4598C11.9369 17.4597 11.9377 17.4601 11.94 17.4615ZM17.7035 15.2437C17.9222 15.3952 18.0524 15.4863 18.094 15.5176L17.7035 15.2437ZM17.8368 15.9463C18.1014 16.105 18.384 16.269 18.685 16.4378L17.8368 15.9463ZM0.73143 7.67386L0.731481 7.67404C0.824519 8.00522 0.896463 8.23987 0.947835 8.38493L0.73143 7.67386ZM0.73143 7.67386C0.642123 7.35642 0.582631 7.07982 0.550048 6.84227L0.73143 7.67386ZM21.5037 18.058C21.5049 18.0595 21.5054 18.0602 21.5053 18.0601C21.5052 18.0601 21.5047 18.0594 21.5037 18.058ZM0.5 6.08926C0.5 5.22681 0.738017 4.33913 1.2353 3.42148L0.550038 6.8422C0.516817 6.59969 0.5 6.34881 0.5 6.08926Z" fill="#78C081" stroke="#577A5B"/>
</svg>
